<?xml version="1.0" encoding="UTF-8"?>
<svg version="1.1" xmlns="http://www.w3.org/2000/svg" width="640" height="640">
<path d="M0 0 C211.2 0 422.4 0 640 0 C640 211.2 640 422.4 640 640 C428.8 640 217.6 640 0 640 C0 428.8 0 217.6 0 0 Z "  transform="translate(0,0)"/>
<path d="M0 0 C1.27036892 0.54838595 2.53320814 1.11445609 3.7890625 1.6953125 C4.47387695 2.00412354 5.15869141 2.31293457 5.86425781 2.63110352 C22.87907999 10.52256723 38.68030693 21.30361725 53.4140625 32.8203125 C54.34992188 33.54863281 55.28578125 34.27695313 56.25 35.02734375 C72.52240513 48.24600356 88.22366452 63.74533364 100.4140625 80.8203125 C101.2391137 81.92970524 102.06597678 83.0377525 102.89453125 84.14453125 C131.71322771 123.04223316 152.98833056 172.34074314 157.4140625 220.8203125 C179.17486025 205.28423467 191.79396767 178.71171968 196.2265625 152.6953125 C196.653413 150.07323088 197.03866117 147.45082251 197.4140625 144.8203125 C197.60871094 143.71042969 197.80335938 142.60054687 198.00390625 141.45703125 C198.61851124 136.00753368 198.31451687 130.58510088 198.0234375 125.11523438 C197.91673663 120.71048918 197.95560373 117.76868567 200.8046875 114.26171875 C203.98871627 111.28264991 205.8970273 110.32053534 210.30859375 110.4296875 C227.58962002 113.63581482 243.57946768 137.23596354 252.8828125 150.53125 C271.63837602 178.12721678 286.27356402 209.40565792 294.4140625 241.8203125 C294.5785791 242.45195312 294.7430957 243.08359375 294.91259766 243.734375 C304.83895894 282.28624112 305.87808575 326.09749517 292.4140625 363.8203125 C292.07785889 364.79508545 292.07785889 364.79508545 291.73486328 365.78955078 C276.47943854 409.96245673 244.21579359 449.18640978 202.01171875 470.00537109 C196.20799435 472.75632751 190.32811397 475.31708458 184.4140625 477.8203125 C183.23714844 478.32691406 182.06023437 478.83351563 180.84765625 479.35546875 C138.04180019 496.8742609 87.70569813 494.13510127 45.4140625 476.8203125 C10.11606879 461.76043407 -18.29622083 437.69996047 -39.5859375 405.8203125 C-40.00407715 405.19495605 -40.4222168 404.56959961 -40.85302734 403.92529297 C-63.89679108 368.90752891 -75.08049904 321.79703307 -67.09741211 280.30737305 C-66.0865882 275.76196121 -64.88969798 271.28959286 -63.5859375 266.8203125 C-63.27293701 265.69157715 -63.27293701 265.69157715 -62.95361328 264.54003906 C-56.82270476 242.75751127 -45.93024317 222.33322195 -36.03588867 202.06274414 C-31.06641798 191.87504572 -26.29199482 181.60903788 -21.68212891 171.25341797 C-20.90679914 169.53249671 -20.11583854 167.81857764 -19.31396484 166.10986328 C-16.57108635 160.23548912 -14.27817647 154.41792198 -12.4609375 148.1953125 C-12.20868408 147.34066406 -11.95643066 146.48601562 -11.6965332 145.60546875 C-0.09584802 105.09871157 -1.92451629 50.9292114 -17.5859375 11.8203125 C-18.03829884 8.78302924 -18.19529013 6.79437061 -16.53515625 4.140625 C-11.65173489 -1.88082081 -7.36793383 -2.42387366 0 0 Z " fill="#FFDF0C" transform="translate(203.5859375,74.1796875)"/>
<path d="M0 0 C1.27036892 0.54838595 2.53320814 1.11445609 3.7890625 1.6953125 C4.47387695 2.00412354 5.15869141 2.31293457 5.86425781 2.63110352 C22.87907999 10.52256723 38.68030693 21.30361725 53.4140625 32.8203125 C54.34992188 33.54863281 55.28578125 34.27695313 56.25 35.02734375 C72.52240513 48.24600356 88.22366452 63.74533364 100.4140625 80.8203125 C101.2391137 81.92970524 102.06597678 83.0377525 102.89453125 84.14453125 C131.71322771 123.04223316 152.98833056 172.34074314 157.4140625 220.8203125 C179.17486025 205.28423467 191.79396767 178.71171968 196.2265625 152.6953125 C196.653413 150.07323088 197.03866117 147.45082251 197.4140625 144.8203125 C197.60871094 143.71042969 197.80335938 142.60054687 198.00390625 141.45703125 C198.61851124 136.00753368 198.31451687 130.58510088 198.0234375 125.11523438 C197.91673663 120.71048918 197.95560373 117.76868567 200.8046875 114.26171875 C203.98871627 111.28264991 205.8970273 110.32053534 210.30859375 110.4296875 C227.58962002 113.63581482 243.57946768 137.23596354 252.8828125 150.53125 C271.63837602 178.12721678 286.27356402 209.40565792 294.4140625 241.8203125 C294.5785791 242.45195312 294.7430957 243.08359375 294.91259766 243.734375 C304.83895894 282.28624112 305.87808575 326.09749517 292.4140625 363.8203125 C292.07785889 364.79508545 292.07785889 364.79508545 291.73486328 365.78955078 C276.47943854 409.96245673 244.21579359 449.18640978 202.01171875 470.00537109 C196.20799435 472.75632751 190.32811397 475.31708458 184.4140625 477.8203125 C183.23714844 478.32691406 182.06023437 478.83351563 180.84765625 479.35546875 C138.04180019 496.8742609 87.70569813 494.13510127 45.4140625 476.8203125 C10.11606879 461.76043407 -18.29622083 437.69996047 -39.5859375 405.8203125 C-40.00407715 405.19495605 -40.4222168 404.56959961 -40.85302734 403.92529297 C-63.89679108 368.90752891 -75.08049904 321.79703307 -67.09741211 280.30737305 C-66.0865882 275.76196121 -64.88969798 271.28959286 -63.5859375 266.8203125 C-63.27293701 265.69157715 -63.27293701 265.69157715 -62.95361328 264.54003906 C-56.82270476 242.75751127 -45.93024317 222.33322195 -36.03588867 202.06274414 C-31.06641798 191.87504572 -26.29199482 181.60903788 -21.68212891 171.25341797 C-20.90679914 169.53249671 -20.11583854 167.81857764 -19.31396484 166.10986328 C-16.57108635 160.23548912 -14.27817647 154.41792198 -12.4609375 148.1953125 C-12.20868408 147.34066406 -11.95643066 146.48601562 -11.6965332 145.60546875 C-0.09584802 105.09871157 -1.92451629 50.9292114 -17.5859375 11.8203125 C-18.03829884 8.78302924 -18.19529013 6.79437061 -16.53515625 4.140625 C-11.65173489 -1.88082081 -7.36793383 -2.42387366 0 0 Z M8.4140625 27.8203125 C8.52363281 28.52671875 8.63320312 29.233125 8.74609375 29.9609375 C9.09070023 32.19107377 9.4328641 34.42158801 9.7734375 36.65234375 C10.23180562 39.65144345 10.70368202 42.64818329 11.1796875 45.64453125 C11.44549183 47.34893038 11.71111725 49.05335741 11.9765625 50.7578125 C12.16665894 51.9348877 12.16665894 51.9348877 12.3605957 53.13574219 C14.28192085 65.59962572 14.60066086 78.11013585 14.59936523 90.69580078 C14.60154731 93.05389607 14.61977833 95.41151825 14.63867188 97.76953125 C14.7770044 135.44372023 3.58039735 166.44281416 -12.65509033 199.90118408 C-30.02512149 234.57959796 -30.02512149 234.57959796 -43.5859375 270.8203125 C-43.78509766 271.48289062 -43.98425781 272.14546875 -44.18945312 272.828125 C-54.87705387 309.45143439 -46.58817074 351.83696768 -28.5859375 384.8203125 C-25.81535164 389.64922574 -22.76351695 394.2511724 -19.5859375 398.8203125 C-18.90015625 399.81289063 -18.214375 400.80546875 -17.5078125 401.828125 C7.91000883 437.13065463 45.92299925 460.59033314 88.69921875 468.109375 C95.59946219 469.21150695 102.42811757 469.65669057 109.4140625 469.8203125 C110.65929687 469.86027344 111.90453125 469.90023438 113.1875 469.94140625 C151.09868376 470.59504735 187.33672348 459.06273918 217.4140625 435.8203125 C218.39117187 435.0675 219.36828125 434.3146875 220.375 433.5390625 C231.67433266 424.55023764 240.80106526 414.3205226 249.4140625 402.8203125 C250.05214844 401.97726562 250.69023437 401.13421875 251.34765625 400.265625 C259.99464393 388.40347562 266.35127893 375.54435043 271.4140625 361.8203125 C271.78144531 360.90121094 272.14882813 359.98210937 272.52734375 359.03515625 C288.0456703 319.31063694 282.9367653 272.49280476 270.4140625 232.8203125 C270.12047852 231.88848145 269.82689453 230.95665039 269.52441406 229.99658203 C260.19092289 201.11432563 245.74610653 173.27745815 226.4140625 149.8203125 C225.79402344 149.04816406 225.17398437 148.27601563 224.53515625 147.48046875 C223.21858634 145.87837765 221.82643827 144.33861645 220.4140625 142.8203125 C219.7540625 142.8203125 219.0940625 142.8203125 218.4140625 142.8203125 C218.30191406 143.87863281 218.18976563 144.93695313 218.07421875 146.02734375 C215.54109204 166.57586478 208.70890842 186.85228949 198.4140625 204.8203125 C197.86363281 205.79355469 197.31320312 206.76679688 196.74609375 207.76953125 C187.71050819 222.81453238 175.85213043 234.4209569 160.4140625 242.8203125 C159.79789063 243.16191406 159.18171875 243.50351562 158.546875 243.85546875 C153.04953459 246.57880559 147.16829114 246.73838871 141.4140625 244.8203125 C139.60210481 240.5723619 138.92625789 236.30888339 138.30078125 231.75390625 C138.10626186 230.37835177 137.91125593 229.00286602 137.71582031 227.62744141 C137.61611938 226.91436829 137.51641846 226.20129517 137.41369629 225.46661377 C133.20068887 195.65344883 125.58554753 167.03000041 112.4140625 139.8203125 C112.09083008 139.1396875 111.76759766 138.4590625 111.43457031 137.7578125 C98.49685882 110.56930834 80.91951623 86.86273014 59.4140625 65.8203125 C58.63546875 65.03785156 57.856875 64.25539062 57.0546875 63.44921875 C45.10388805 51.55145539 32.19573366 41.84253928 18.1015625 32.6328125 C17.36591064 32.15070313 16.63025879 31.66859375 15.87231445 31.171875 C12.42195129 28.69735562 12.42195129 28.69735562 8.4140625 27.8203125 Z " fill="#020202" transform="translate(203.5859375,74.1796875)"/>
<path d="M0 0 C7.23128543 6.11663153 13.85155805 12.55742292 20.02734375 19.74609375 C21.96466499 21.95962713 23.95100136 24.12203715 25.9519043 26.27807617 C30.73200982 31.43212716 35.29440228 36.69614538 39.703125 42.17578125 C41.7255113 44.66249094 43.79204745 47.10326284 45.88256836 49.53271484 C54.15955862 59.17073135 61.77128179 69.31025971 69.3515625 79.5 C69.89111572 80.22405029 70.43066895 80.94810059 70.98657227 81.6940918 C72.008681 83.06804028 73.02759978 84.44436984 74.04272461 85.82348633 C77.66001936 90.73907766 77.66001936 90.73907766 82 95 C87.73543892 95.86081674 87.73543892 95.86081674 92.60058594 93.07910156 C95.97365633 88.75053381 95.63879121 85.44062828 95.48828125 80.10546875 C95.48120651 79.15811356 95.47413177 78.21075836 95.46684265 77.23469543 C95.43892334 74.21814979 95.37618915 71.2034816 95.3125 68.1875 C95.28741396 66.13869874 95.26460133 64.0898683 95.24414062 62.04101562 C95.18910459 57.02662379 95.10284856 52.01362986 95 47 C114.56630833 54.31640771 132.99593417 75.15814595 141.9375 93.625 C142.66081558 95.40250957 143.34970199 97.1944978 144 99 C144.31710937 99.84949219 144.63421875 100.69898438 144.9609375 101.57421875 C149.78373787 117.08239791 148.19105333 134.20763593 142 149 C141.50371094 150.20011719 141.00742187 151.40023437 140.49609375 152.63671875 C132.24060429 170.71922458 116.85409656 185.41496286 98.18359375 192.51171875 C91.9397969 194.74253329 85.67339674 196.85093787 79 197 C77.79601562 197.02707031 76.59203125 197.05414062 75.3515625 197.08203125 C71.23120999 197.14154691 67.11995922 197.08150266 63 197 C61.55560547 196.99226563 61.55560547 196.99226563 60.08203125 196.984375 C42.28120132 196.23033077 24.45794085 185.24237805 12.60693359 172.50244141 C5.90747271 164.80596456 0.96948354 156.4025167 -3 147 C-3.43441406 145.98292969 -3.86882812 144.96585938 -4.31640625 143.91796875 C-10.33536174 126.90970081 -7.19839662 107.20113985 -5.13842773 89.7121582 C-4.00124781 79.50558441 -3.66963744 69.38615752 -3.5 59.125 C-3.17104774 39.34150528 -1.72702407 19.70562085 0 0 Z " fill="#FFDF0C" transform="translate(250,347)"/>
<path d="M0 0 C6.09447991 3.6714836 11.11068748 8.83193197 16.0625 13.875 C17.06506836 14.87853516 17.06506836 14.87853516 18.08789062 15.90234375 C22.02134734 19.87020388 25.77507916 23.94733438 29.40600586 28.19384766 C31.03631422 30.04114759 32.74115641 31.77533385 34.5 33.5 C37.53855772 36.49129127 40.34954301 39.62296989 43.1328125 42.8515625 C45.13970337 45.16074656 47.19167625 47.42407637 49.25 49.6875 C54.16459989 55.13611414 58.90167635 60.72423863 63.61376953 66.34765625 C64.98742028 67.98500536 66.36633136 69.61779988 67.74609375 71.25 C72.05196962 76.35962885 76.23363207 81.4759937 80 87 C80.10175119 82.29683381 80.0798566 77.63771694 79.671875 72.94921875 C79.58474243 71.89444336 79.58474243 71.89444336 79.49584961 70.81835938 C79.3754101 69.41863094 79.24121946 68.0200047 79.09204102 66.62304688 C78.71461404 62.11387525 79.16905749 59.55649299 82 56 C86.09778826 53.26814116 89.18670068 53.28782337 94 54 C97.44835861 55.27182539 100.52702698 57.01055274 103.6875 58.875 C104.55963135 59.37386719 105.4317627 59.87273437 106.33032227 60.38671875 C134.65464123 76.85343716 163.0944152 101.14099062 172.42114258 133.78662109 C176.83535686 150.66526584 176.12311257 167.39376072 171 184 C170.62617188 185.23492187 170.25234375 186.46984375 169.8671875 187.7421875 C167.18823805 195.8500014 163.57134094 202.80705432 159 210 C159.66 210.33 160.32 210.66 161 211 C139.60105501 221.72218211 118.18904745 230.96230418 94 232 C96.75693131 230.1620458 99.23418311 229.16286562 102.34399414 228.09765625 C110.79262441 225.18127776 117.83178818 221.42310016 125 216 C125.96099609 215.31357422 125.96099609 215.31357422 126.94140625 214.61328125 C140.2305828 204.34577362 150.75189628 185.40366344 153 169 C154.85829495 145.95538949 149.34795366 127.1954374 134.37548828 109.57470703 C124.95690541 98.79198437 114.37119256 90.23772574 102 83 C102.10828125 84.38832031 102.10828125 84.38832031 102.21875 85.8046875 C102.88698628 95.11032123 103.18755451 104.42203808 103.3125 113.75 C103.34214844 114.88034668 103.37179687 116.01069336 103.40234375 117.17529297 C103.46043066 125.22153992 103.46043066 125.22153992 101.10546875 129.203125 C97.89867385 131.93990729 95.40473414 132.55258757 91.13671875 132.4453125 C83.55334428 130.86486517 78.83453502 120.70257249 74.67578125 114.7578125 C70.36965002 108.64516803 65.68183313 102.82663511 61 97 C60.24976563 96.06542969 59.49953125 95.13085938 58.7265625 94.16796875 C52.63119527 86.65328316 46.32555343 79.32074254 40 72 C39.36191406 71.25878906 38.72382813 70.51757812 38.06640625 69.75390625 C34.14847952 65.23466703 30.10822217 60.8303861 26.05541992 56.43237305 C23.40800872 53.55471245 20.80317491 50.64895288 18.25 47.6875 C16.02264109 45.11256883 13.71423149 42.66683857 11.296875 40.26953125 C10.67651367 39.65311768 10.05615234 39.0367041 9.41699219 38.40161133 C8.94938477 37.93907959 8.48177734 37.47654785 8 37 C6.17465692 57.18180358 4.79357998 77.26547912 4.45928955 97.53039551 C4.27328625 108.21988037 3.68903401 118.68599582 2.4375 129.3125 C0.25750037 148.21109586 -1.77147636 167.1689984 6 185 C6.50789063 186.2065625 7.01578125 187.413125 7.5390625 188.65625 C16.65221494 208.52378612 32.77922413 221.4663723 52.8828125 229.09375 C54.9057924 229.77864602 56.95045039 230.39926994 59 231 C59 231.33 59 231.66 59 232 C35.55554095 231.47583527 13.42405926 221.71289212 -7 211 C-6.34 210.67 -5.68 210.34 -5 210 C-5.43570313 209.34257813 -5.87140625 208.68515625 -6.3203125 208.0078125 C-11.89004957 199.11070003 -15.05239907 190.01858358 -18 180 C-18.51433594 178.34677734 -18.51433594 178.34677734 -19.0390625 176.66015625 C-23.231243 161.4390149 -20.95892612 145.42328511 -19.35177612 129.97439575 C-18.03741526 117.23854829 -17.54446781 104.55732832 -17.37915039 91.7578125 C-17.27000711 84.64843118 -16.90733293 77.71738098 -15.9921875 70.6640625 C-15.02183463 62.98371637 -14.81186766 55.37825753 -14.76171875 47.640625 C-14.75291183 46.47099213 -14.74410492 45.30135925 -14.73503113 44.09628296 C-14.70501829 39.24247744 -14.68532908 34.389058 -14.69458008 29.53515625 C-14.69719209 25.9448336 -14.66919064 22.35577804 -14.63671875 18.765625 C-14.65202888 17.12500092 -14.65202888 17.12500092 -14.66764832 15.45123291 C-14.55877456 7.00921444 -14.55877456 7.00921444 -11.64770508 3.32714844 C-7.88600919 0.02087963 -4.91243041 -0.64881156 0 0 Z " fill="#FF8437" transform="translate(243,311)"/>
<path d="M0 0 C-4.10457614 2.98514628 -6.97745369 3.2954439 -12 3 C-7.97869817 0.31913211 -4.73968522 -1.57989507 0 0 Z " fill="#FF8437" transform="translate(349,540)"/>
</svg>
